<?xml version="1.0" encoding="iso-8859-1"?>
<!-- Uploaded to: SVG Repo, www.svgrepo.com, Generator: SVG Repo Mixer Tools -->
<svg fill="#000000" height="800px" width="800px" version="1.1" id="Layer_1" xmlns="http://www.w3.org/2000/svg" xmlns:xlink="http://www.w3.org/1999/xlink" 
	 viewBox="0 0 511.999 511.999" xml:space="preserve">
<g>
	<g>
		<g>
			<path d="M215.895,261.254c0,22.114,17.991,40.105,40.105,40.105s40.105-17.991,40.105-40.105
				c0-22.115-17.991-40.106-40.105-40.106S215.895,239.138,215.895,261.254z M279.937,261.254c0,13.199-10.738,23.937-23.937,23.937
				s-23.937-10.738-23.937-23.937c0-13.2,10.738-23.938,23.937-23.938C269.199,237.316,279.937,248.054,279.937,261.254z"/>
			<path d="M409.76,289.302c-0.051-0.058-0.101-0.114-0.154-0.171l-72.473-78.662v-44.733c0-4.465-3.618-8.084-8.084-8.084
				c-4.466,0-8.084,3.62-8.084,8.084v47.89v113.595H191.036V213.625v-99.966c0-31.793,25.865-57.658,57.659-57.658h14.611
				c31.794,0,57.659,25.865,57.659,57.658v25.669c0,4.465,3.619,8.084,8.084,8.084c4.466,0,8.084-3.62,8.084-8.084v-25.669
				c0-40.447-32.699-73.385-73.048-73.806V8.084c0-4.465-3.618-8.084-8.084-8.084c-4.466,0-8.084,3.62-8.084,8.084v31.769
				c-40.349,0.421-73.049,33.359-73.049,73.806v96.809l-72.473,78.662c-0.053,0.057-0.103,0.113-0.154,0.171
				c-4.94,5.678-16.431,21.528-16.431,46.002v50.033c0,19.432,11.657,20.943,15.231,20.943c2.062,0,4.167-0.412,6.257-1.222
				c0.155-0.06,0.307-0.125,0.457-0.194l69.747-32.131c3.137,6.421,8.83,11.374,15.749,13.519
				c-2.959,9.674-4.458,19.709-4.458,29.959c0,42.04,25.189,79.407,64.174,95.197c0.972,0.395,2.004,0.592,3.034,0.592
				s2.062-0.197,3.034-0.591c38.984-15.79,64.174-53.157,64.174-95.199c0-10.252-1.499-20.288-4.457-29.959
				c6.918-2.145,12.612-7.098,15.748-13.519l69.75,32.131c0.15,0.069,0.301,0.134,0.455,0.193c2.089,0.811,4.194,1.222,6.256,1.223
				c0.001,0,0.002,0,0.002,0c4.594,0,8.617-2.048,11.331-5.768c2.624-3.596,3.899-8.56,3.899-15.176v-50.033
				C426.193,310.829,414.7,294.979,409.76,289.302z M174.868,335.305v20.841l-72.542,33.416c-0.182-0.883-0.348-2.236-0.348-4.225
				v-50.033c0-19.393,9.387-31.831,12.39-35.308l60.5-65.665V335.305z M256.001,495.128c-31.117-13.975-51.04-44.598-51.04-78.917
				c0-9.9,1.654-19.562,4.923-28.794h7.721c4.002,18.816,17.28,34.946,35.361,42.271c0.972,0.395,2.004,0.592,3.034,0.592
				s2.062-0.197,3.034-0.591c18.081-7.323,31.357-23.455,35.358-42.272h7.724c3.268,9.229,4.922,18.89,4.922,28.794
				C307.041,450.53,287.117,481.153,256.001,495.128z M234.268,387.416h43.464c-3.339,11.133-11.223,20.642-21.731,25.913
				C245.492,408.058,237.607,398.547,234.268,387.416z M320.965,361.32c0,5.475-4.454,9.927-9.929,9.927h-3.392h-20.223h-62.845
				h-20.221h-3.391c-5.475,0-9.928-4.453-9.928-9.927v-17.933h129.929V361.32z M410.024,385.337c0,1.99-0.166,3.343-0.348,4.224
				l-72.542-33.417v-20.841V234.329l60.5,65.665c3.003,3.476,12.39,15.915,12.39,35.308V385.337z"/>
		</g>
	</g>
</g>
</svg>